<svg width="212" height="105" viewBox="0 0 212 105" fill="none" xmlns="http://www.w3.org/2000/svg">
<path d="M151.327 99.8736C159.895 90.9704 165.155 78.876 165.155 65.5431C165.155 38.1778 142.977 16 115.612 16C105.922 16 96.873 18.7832 89.2375 23.5918L85.0847 19.4389C83.2924 17.6466 80.3781 17.6466 78.6003 19.4389C76.9538 21.0855 76.8226 23.6938 78.2069 25.4861L91.1464 38.4401C93.5216 40.8153 93.5216 44.7204 91.1464 47.0956L90.9133 47.3287C88.5381 49.7039 84.633 49.7039 82.2578 47.3287L63.0963 28.1526L63.0525 28.1089L61.8285 26.8849C60.0362 25.0926 57.1219 25.0926 55.3442 26.8849C53.5519 28.6772 53.5519 31.5915 55.3442 33.3692L69.4494 47.4744C67.2637 53.0699 66.0543 59.1608 66.0543 65.5285C66.0543 78.8615 71.3146 90.9558 79.8826 99.859H65.6608C64.3348 99.859 63.2565 100.937 63.2565 102.263C63.2565 103.589 64.3348 104.668 65.6608 104.668H151.268C152.594 104.668 153.673 103.589 153.673 102.263C153.658 100.981 152.609 99.9027 151.327 99.8736ZM171.596 99.8736H158.7C157.374 99.8736 156.296 100.952 156.296 102.278C156.296 103.604 157.374 104.682 158.7 104.682H171.596C172.922 104.682 174 103.604 174 102.278C174 100.952 172.922 99.8736 171.596 99.8736Z" fill="#DAFFF1"/>
<path d="M144.334 69.1138C144.319 69.1138 141.58 68.6475 138.768 66.7386V46.9505C138.768 45.2165 137.354 43.7302 135.62 43.8031L129.311 44.0799C127.868 40.6848 125.974 38.1785 123.846 36.5319C121.675 34.8562 119.285 34.0693 116.867 34.0984C114.462 34.1276 112.058 34.9873 109.858 36.6047C107.337 38.4699 105.093 41.3696 103.49 45.2019L97.4137 45.4642C95.6797 45.5371 94.2662 46.8776 94.2662 48.6117V67.0446C91.2353 69.4489 87.913 70.0755 87.8548 70.0755C86.7182 70.2795 85.9459 71.3578 86.1499 72.4944C86.3248 73.5144 87.2136 74.2429 88.219 74.2429C88.3356 74.2429 88.4522 74.2284 88.5688 74.2138C88.7436 74.1846 91.3082 73.7184 94.2808 72.0718V81.6744C94.2808 83.4084 95.6942 84.749 97.4282 84.8218L102.397 85.0404L101.319 92.7487H98.9582C97.8071 92.7487 96.86 93.6813 96.86 94.847C96.86 95.9982 97.7925 96.9453 98.9582 96.9453H102.004C103.65 96.9453 104.801 95.8379 105.209 94.7596L105.297 94.541L106.594 85.2298L126.251 86.0896V92.5302L122.477 92.6176C121.326 92.6467 120.408 93.6085 120.437 94.7596C120.466 95.8962 121.398 96.7996 122.535 96.7996H122.579L127.081 96.6976H127.125C128.058 96.6539 128.903 96.2605 129.486 95.5756C130.447 94.4682 130.462 92.9819 130.433 92.4865V86.2644L135.62 86.4976C137.34 86.5704 138.768 85.0841 138.768 83.3501V71.5181C141.434 72.8441 143.576 73.2084 143.591 73.2084C144.727 73.4124 145.82 72.6546 146.024 71.5181C146.228 70.4106 145.47 69.3178 144.334 69.1138ZM105.239 45.1436C106.696 41.9379 108.634 39.4899 110.79 37.9016C112.714 36.4736 114.812 35.7304 116.881 35.7013C118.95 35.6722 121.02 36.357 122.885 37.7996C124.692 39.1985 126.324 41.3113 127.62 44.1673L105.239 45.1436Z" fill="#35D49A"/>
<path d="M126.103 61.1581L128.318 58.9432C128.726 58.5352 128.726 57.8649 128.318 57.4569C127.91 57.0489 127.24 57.0489 126.832 57.4569L124.617 59.6718L122.402 57.4569C121.994 57.0489 121.324 57.0489 120.916 57.4569C120.508 57.8649 120.508 58.5352 120.916 58.9432L123.13 61.1581L120.916 63.373C120.508 63.781 120.508 64.4513 120.916 64.8593C121.324 65.2673 121.994 65.2673 122.402 64.8593L124.617 62.6444L126.832 64.8593C127.036 65.0633 127.298 65.1653 127.575 65.1653C127.837 65.1653 128.114 65.0633 128.318 64.8593C128.726 64.4513 128.726 63.781 128.318 63.373L126.103 61.1581ZM118.453 68.8227H112.843C112.26 68.8227 111.794 69.289 111.794 69.8719C111.794 70.4547 112.26 70.921 112.843 70.921H118.453C119.036 70.921 119.502 70.4547 119.502 69.8719C119.502 69.289 119.036 68.8227 118.453 68.8227ZM106.679 56.6992C104.595 56.6992 102.891 58.3895 102.891 60.4878C102.891 61.843 103.605 63.0233 104.654 63.6935V65.5441C104.654 66.6516 105.557 67.555 106.665 67.555C107.772 67.555 108.676 66.6516 108.676 65.5441V63.6644C109.739 62.9941 110.439 61.8138 110.439 60.4587C110.453 58.3895 108.763 56.6992 106.679 56.6992ZM107.641 65.5441C107.641 66.0687 107.204 66.5058 106.679 66.5058C106.14 66.5058 105.717 66.0687 105.717 65.5441V64.1307C106.023 64.2181 106.344 64.2618 106.679 64.2618C107.014 64.2618 107.335 64.2181 107.641 64.1307V65.5441Z" fill="white"/>
<rect y="22" width="23" height="6" rx="3" fill="#DAFFF1"/>
<rect x="189" y="50" width="23" height="6" rx="3" fill="#DAFFF1"/>
<rect x="23" y="76" width="23" height="6" rx="3" fill="#DAFFF1"/>
<rect x="140" width="23" height="6" rx="3" fill="#DAFFF1"/>
</svg>
