<svg width="32" height="28" viewBox="0 0 32 28" fill="none" xmlns="http://www.w3.org/2000/svg">
<path fill-rule="evenodd" clip-rule="evenodd" d="M32 27.7265C31.8445 27.8925 31.6233 28 31.3645 28H18.3761L16.2588 25.5403C16.116 25.3726 15.88 25.3726 15.7348 25.5403L13.622 28H0.621018C0.37038 28 0.153624 27.8985 0 27.743L10.5158 21.0083C10.5516 21.1202 10.6568 21.2072 10.7936 21.2072H13.622L15.7372 23.667C15.8822 23.835 16.1178 23.835 16.261 23.667L18.3761 21.2072H21.1895C21.3284 21.2072 21.4357 21.1163 21.4694 21L32 27.7265Z" fill="black"/>
<mask id="mask0_3120_4747" style="mask-type:alpha" maskUnits="userSpaceOnUse" x="0" y="0" width="16" height="28">
<path d="M0 0H16V28H0V0Z" fill="white"/>
</mask>
<g mask="url(#mask0_3120_4747)">
<path fill-rule="evenodd" clip-rule="evenodd" d="M16 0V11.8308C15.9023 11.8308 15.8051 11.881 15.7491 11.9774L14.2998 14.5168L12.3903 17.8656L11.5111 19.4047L11.4695 19.4783L10.63 20.948C10.5864 21.0258 10.58 21.1097 10.6049 21.185L0.244432 28C-0.00644669 27.7379 -0.089589 27.3206 0.115882 26.962L15.2598 0.431966C15.4255 0.144478 15.7137 0 16 0Z" fill="#383838"/>
</g>
<mask id="mask1_3120_4747" style="mask-type:alpha" maskUnits="userSpaceOnUse" x="16" y="0" width="16" height="28">
<path d="M16 0H32V28H16V0Z" fill="white"/>
</mask>
<g mask="url(#mask1_3120_4747)">
<path fill-rule="evenodd" clip-rule="evenodd" d="M31.7705 28L21.3963 21.1893C21.4191 21.1159 21.4129 21.0343 21.3694 20.9606L20.5361 19.4982L20.4882 19.4163L19.6092 17.8763L17.6998 14.5255L16.2509 11.9846C16.1947 11.8881 16.0972 11.8379 16 11.8379V0C16.288 0 16.5761 0.144565 16.7399 0.432015L31.8846 26.9782C32.0859 27.3309 32.009 27.7377 31.7705 28Z" fill="#696969"/>
</g>
</svg>
